HIERARCHY
ROOT hip
{
  OFFSET 0 0 0
  CHANNELS 6 Xposition Yposition Zposition Zrotation Yrotation Xrotation
  JOINT abdomen
  {
    OFFSET 0 20.6881 -0.73152
    CHANNELS 3 Zrotation Xrotation Yrotation
    JOINT chest
    {
      OFFSET 0 11.7043 -0.48768
      CHANNELS 3 Zrotation Xrotation Yrotation
      JOINT neck
      {
        OFFSET 0 22.1894 -2.19456
        CHANNELS 3 Zrotation Xrotation Yrotation
        JOINT head
        {
          OFFSET -0.24384 7.07133 1.2192
          CHANNELS 3 Zrotation Xrotation Yrotation
          JOINT leftEye
          {
            OFFSET 4.14528 8.04674 8.04672
            CHANNELS 3 Zrotation Xrotation Yrotation
            End Site
            {
              OFFSET 1 0 0
            }
          }
          JOINT rightEye
          {
            OFFSET -3.6576 8.04674 8.04672
            CHANNELS 3 Zrotation Xrotation Yrotation
            End Site
            {
              OFFSET 1 0 0
            }
          }
        }
      }
      JOINT rCollar
      {
        OFFSET -2.68224 19.2634 -4.8768
        CHANNELS 3 Zrotation Xrotation Yrotation
        JOINT rShldr
        {
          OFFSET -8.77824 -1.95073 1.46304
          CHANNELS 3 Zrotation Xrotation Yrotation
          JOINT rForeArm
          {
            OFFSET -28.1742 -1.7115 0.48768
            CHANNELS 3 Zrotation Xrotation Yrotation
            JOINT rHand
            {
              OFFSET -22.5879 0.773209 7.07136
              CHANNELS 3 Zrotation Xrotation Yrotation
              JOINT rThumb1
              {
                OFFSET -1.2192 -0.487915 3.41376
                CHANNELS 3 Zrotation Xrotation Yrotation
                JOINT rThumb2
                {
                  OFFSET -3.37035 -0.52449 3.41376
                  CHANNELS 3 Zrotation Xrotation Yrotation
                  End Site
                  {
                    OFFSET -1.78271 -1.18214 1.43049
                  }
                }
              }
              JOINT rIndex1
              {
                OFFSET -7.75947 0.938293 5.60832
                CHANNELS 3 Zrotation Xrotation Yrotation
                JOINT rIndex2
                {
                  OFFSET -2.54057 -0.884171 1.56538
                  CHANNELS 3 Zrotation Xrotation Yrotation
                  End Site
                  {
                    OFFSET -1.62519 -0.234802 1.16502
                  }
                }
              }
              JOINT rMid1
              {
                OFFSET -8.24714 1.18213 3.41376
                CHANNELS 3 Zrotation Xrotation Yrotation
                JOINT rMid2
                {
                  OFFSET -3.10165 -0.590103 1.0647
                  CHANNELS 3 Zrotation Xrotation Yrotation
                  End Site
                  {
                    OFFSET -2.48547 -0.328903 0.83742
                  }
                }
              }
              JOINT rRing1
              {
                OFFSET -8.82822 0.546677 1.51678
                CHANNELS 3 Zrotation Xrotation Yrotation
                JOINT rRing2
                {
                  OFFSET -2.60934 -0.819778 -0.0198488
                  CHANNELS 3 Zrotation Xrotation Yrotation
                  End Site
                  {
                    OFFSET -2.33842 -0.294052 0.168128
                  }
                }
              }
              JOINT rPinky1
              {
                OFFSET -8.27202 -0.0477905 -0.4584
                CHANNELS 3 Zrotation Xrotation Yrotation
                JOINT rPinky2
                {
                  OFFSET -1.82734 -0.647385 -0.700984
                  CHANNELS 3 Zrotation Xrotation Yrotation
                  End Site
                  {
                    OFFSET -1.69225 -0.51767 -0.607171
                  }
                }
              }
            }
          }
        }
      }
      JOINT lCollar
      {
        OFFSET 2.68224 19.2634 -4.8768
        CHANNELS 3 Zrotation Xrotation Yrotation
        JOINT lShldr
        {
          OFFSET 8.77824 -1.95073 1.46304
          CHANNELS 3 Zrotation Xrotation Yrotation
          JOINT lForeArm
          {
            OFFSET 28.1742 -1.7115 0.48768
            CHANNELS 3 Zrotation Xrotation Yrotation
            JOINT lHand
            {
              OFFSET 22.5879 0.773209 7.07136
              CHANNELS 3 Zrotation Xrotation Yrotation
              JOINT lThumb1
              {
                OFFSET 1.2192 -0.487915 3.41376
                CHANNELS 3 Zrotation Xrotation Yrotation
                JOINT lThumb2
                {
                  OFFSET 3.37035 -0.52449 3.41376
                  CHANNELS 3 Zrotation Xrotation Yrotation
                  End Site
                  {
                    OFFSET 1.78271 -1.18214 1.43049
                  }
                }
              }
              JOINT lIndex1
              {
                OFFSET 7.75947 0.938293 5.60832
                CHANNELS 3 Zrotation Xrotation Yrotation
                JOINT lIndex2
                {
                  OFFSET 2.54057 -0.884171 1.56538
                  CHANNELS 3 Zrotation Xrotation Yrotation
                  End Site
                  {
                    OFFSET 1.62519 -0.234802 1.16502
                  }
                }
              }
              JOINT lMid1
              {
                OFFSET 8.24714 1.18213 3.41376
                CHANNELS 3 Zrotation Xrotation Yrotation
                JOINT lMid2
                {
                  OFFSET 3.10165 -0.590103 1.0647
                  CHANNELS 3 Zrotation Xrotation Yrotation
                  End Site
                  {
                    OFFSET 2.48547 -0.328903 0.83742
                  }
                }
              }
              JOINT lRing1
              {
                OFFSET 8.82822 0.546677 1.51678
                CHANNELS 3 Zrotation Xrotation Yrotation
                JOINT lRing2
                {
                  OFFSET 2.60934 -0.819778 -0.0198488
                  CHANNELS 3 Zrotation Xrotation Yrotation
                  End Site
                  {
                    OFFSET 2.33842 -0.294052 0.168128
                  }
                }
              }
              JOINT lPinky1
              {
                OFFSET 8.27202 -0.0477905 -0.4584
                CHANNELS 3 Zrotation Xrotation Yrotation
                JOINT lPinky2
                {
                  OFFSET 1.82734 -0.647385 -0.700984
                  CHANNELS 3 Zrotation Xrotation Yrotation
                  End Site
                  {
                    OFFSET 1.69225 -0.51767 -0.607171
                  }
                }
              }
            }
          }
        }
      }
    }
  }
  JOINT rButtock
  {
    OFFSET -8.77824 4.35084 1.2192
    CHANNELS 3 Zrotation Xrotation Yrotation
    JOINT rThigh
    {
      OFFSET 0 -1.70687 -2.19456
      CHANNELS 3 Zrotation Xrotation Yrotation
      JOINT rShin
      {
        OFFSET 0 -36.8199 0.73152
        CHANNELS 3 Zrotation Xrotation Yrotation
        JOINT rFoot
        {
          OFFSET 0.73152 -45.1104 -5.12064
          CHANNELS 3 Zrotation Xrotation Yrotation
          End Site
          {
            OFFSET -1.1221 -3.69964 12.103
          }
        }
      }
    }
  }
  JOINT lButtock
  {
    OFFSET 8.77824 4.35084 1.2192
    CHANNELS 3 Zrotation Xrotation Yrotation
    JOINT lThigh
    {
      OFFSET 0 -1.70687 -2.19456
      CHANNELS 3 Zrotation Xrotation Yrotation
      JOINT lShin
      {
        OFFSET 0 -36.8199 0.73152
        CHANNELS 3 Zrotation Xrotation Yrotation
        JOINT lFoot
        {
          OFFSET -0.73152 -45.1104 -5.12064
          CHANNELS 3 Zrotation Xrotation Yrotation
          End Site
          {
            OFFSET 1.1221 -3.69964 12.103
          }
        }
      }
    }
  }
}
MOTION
Frames:	5
Frame Time:	0.00833333
-167.923 85.4571 9.78537 0.0 0.0 0.0 1.92987 -0.00172187 0.0523822 0.532078 0.00507089 0.0921218 -4.22244e-15 0.0 -5.46658e-16 -1.19892e-14 3.18055e-15 -1.61668e-15 -0.0 0.0 0.0 -0.0 0.0 0.0 -1.88994e-15 -1.61124e-17 -9.93923e-17 -3.82052e-14 -8.69683e-17 -4.77083e-15 -6.86453e-13 2.01965e-13 -9.85972e-14 -7.85024e-12 -2.46841e-13 -1.13546e-12 -1.85164e-11 -1.02857e-13 -2.67167e-12 -3.19868e-11 -1.74931e-13 -4.61339e-12 -1.85108e-11 -1.01778e-13 -2.68439e-12 7.73091 5.47488 0.417314 -1.85163e-11 -1.02871e-13 -2.67485e-12 2.90554 0.965183 0.102902 -1.85104e-11 -1.02573e-13 -2.67326e-12 10.2786 0.731801 0.0259123 -1.85259e-11 -1.0138e-13 -2.6653e-12 2.22167 -0.733487 -0.20892 -1.9865e-15 -1.51418e-17 -3.97569e-16 -4.21364e-14 -5.90142e-16 -6.95746e-15 -6.86006e-13 -2.19259e-13 -1.01778e-13 -7.86419e-12 1.55648e-13 -1.12592e-12 -1.85392e-11 -1.38689e-13 -2.67803e-12 -3.20095e-11 -2.41722e-13 -4.61817e-12 -1.85434e-11 -1.37957e-13 -2.67803e-12 -7.73091 5.47488 -0.417314 -1.85403e-11 -1.38255e-13 -2.67803e-12 -2.90554 0.965183 -0.102902 -1.85481e-11 -1.38454e-13 -2.67803e-12 -10.2786 0.731801 -0.0259123 -1.85325e-11 -1.36764e-13 -2.68757e-12 -2.22167 -0.733487 0.20892 -2.03217e-16 0.0 -3.88251e-19 1.95956 -7.26115 -0.192021 0.00412014 7.58526 0.107058 -0.521372 -0.330658 0.0523377 2.03217e-16 0.0 3.88251e-19 0.97676 -1.92613 0.000868476 0.00898656 -2.0786 0.0740575 0.487787 3.99809 -0.136724
-161.424 85.2146 1.46939 12.9086 84.8798 13.2783 1.40482 2.67808 0.625706 0.973112 -1.04443 0.30569 0.883633 -1.6255 0.748201 -0.802566 3.7745 1.4814 -0.0 0.0 0.0 -0.0 0.0 0.0 -8.51607e-15 5.90376e-13 -1.3548e-14 21.6331 9.67462 1.12821 -4.41618 -2.04722 6.85307 0.00797486 1.98111 0.277826 -3.27609e-10 -2.41209e-11 5.40137e-10 -5.62476e-10 -4.16536e-11 9.36347e-10 -3.27605e-10 -2.41187e-11 5.40126e-10 7.73091 5.47488 0.417314 -3.27609e-10 -2.41188e-11 5.40135e-10 2.90554 0.965183 0.102902 -3.27603e-10 -2.41193e-11 5.40136e-10 10.2786 0.731801 0.0259123 -3.27617e-10 -2.4119e-11 5.40141e-10 2.22167 -0.733487 -0.20892 -8.58233e-15 5.9038e-13 -1.38008e-14 -21.2953 12.1479 -2.41791 3.56716 -1.50966 -5.68636 -0.0129682 2.52724 -0.353934 8.30618e-10 -4.04768e-10 -3.5125e-10 1.43296e-09 -6.9958e-10 -6.14179e-10 8.3061e-10 -4.04769e-10 -3.51247e-10 -7.73091 5.47488 -0.417314 8.30616e-10 -4.04769e-10 -3.5125e-10 -2.90554 0.965183 -0.102902 8.30605e-10 -4.0477e-10 -3.51248e-10 -10.2786 0.731801 -0.0259123 8.30627e-10 -4.04768e-10 -3.5126e-10 -2.22167 -0.733487 0.20892 -2.03217e-16 0.0 -3.88251e-19 -0.13547 -4.47047 -2.73871 0.00499111 8.29097 0.13356 -0.558223 -4.53104 -1.6182 2.03217e-16 0.0 3.88251e-19 2.77964 -0.672037 0.684698 0.002325 0.668285 -0.0125273 0.714682 -0.0224862 2.716
-161.44 85.2088 1.46633 13.1014 84.8703 13.5419 0.7899 5.51118 1.23469 1.44875 -2.15537 0.531372 1.86529 -3.34452 1.54153 -1.86752 7.7592 3.06958 -0.0 0.0 0.0 -0.0 0.0 0.0 -1.53685e-14 1.28985e-12 -3.04296e-14 44.0624 19.8999 2.43751 -8.5584 -4.11533 14.1289 -0.00453553 4.07619 0.572762 -6.55491e-10 -4.81592e-11 1.12257e-09 -1.12518e-09 -8.31568e-11 1.94597e-09 -6.5549e-10 -4.81558e-11 1.12256e-09 7.73091 5.47488 0.417314 -6.55492e-10 -4.81547e-11 1.12257e-09 2.90554 0.965183 0.102902 -6.55486e-10 -4.81561e-11 1.12257e-09 10.2786 0.731801 0.0259123 -6.55498e-10 -4.81568e-11 1.12257e-09 2.22167 -0.733487 -0.20892 -1.54007e-14 1.28986e-12 -3.06315e-14 -42.5911 24.9191 -5.36534 7.0148 -3.05648 -11.7114 0.00738474 5.19137 -0.729379 1.75106e-09 -8.42413e-10 -7.22905e-10 3.02098e-09 -1.456e-09 -1.26422e-09 1.75105e-09 -8.42417e-10 -7.22901e-10 -7.73091 5.47488 -0.417314 1.75106e-09 -8.42416e-10 -7.22906e-10 -2.90554 0.965183 -0.102902 1.75104e-09 -8.42417e-10 -7.22901e-10 -10.2786 0.731801 -0.0259123 1.75107e-09 -8.42416e-10 -7.22916e-10 -2.22167 -0.733487 0.20892 -2.03217e-16 0.0 -3.88251e-19 -2.0835 -1.52162 -5.41971 0.0051685 9.03652 0.161696 -0.866401 -8.96265 -3.41487 2.03217e-16 0.0 3.88251e-19 4.65056 0.654382 1.40724 0.00431522 3.57251 -0.104235 1.39002 -4.25093 5.74797
-161.444 85.2061 1.45587 13.9448 84.769 14.4073 0.192475 8.0343 1.78786 1.87868 -3.14322 0.733777 2.77862 -4.87316 2.25184 -3.00242 11.2929 4.52229 -0.0 0.0 0.0 -0.0 0.0 0.0 -2.17683e-14 1.77116e-12 -4.04453e-14 63.6181 28.9755 3.81455 -11.8081 -5.79095 20.6562 -0.0339766 5.94277 0.837481 -9.45793e-10 -7.21569e-11 1.62576e-09 -1.62346e-09 -1.24611e-10 2.81827e-09 -9.45795e-10 -7.21525e-11 1.62575e-09 7.73091 5.47488 0.417314 -9.45794e-10 -7.21506e-11 1.62576e-09 2.90554 0.965183 0.102902 -9.45789e-10 -7.21528e-11 1.62575e-09 10.2786 0.731801 0.0259123 -9.45799e-10 -7.21542e-11 1.62575e-09 2.22167 -0.733487 -0.20892 -2.1774e-14 1.77117e-12 -4.06072e-14 -60.1986 36.152 -8.79426 9.81508 -4.35086 -17.1039 0.0554621 7.58055 -1.07012 2.52893e-09 -1.21403e-09 -1.04839e-09 4.36291e-09 -2.09826e-09 -1.8333e-09 2.52892e-09 -1.21403e-09 -1.04839e-09 -7.73091 5.47488 -0.417314 2.52893e-09 -1.21403e-09 -1.04839e-09 -2.90554 0.965183 -0.102902 2.52891e-09 -1.21403e-09 -1.04839e-09 -10.2786 0.731801 -0.0259123 2.52894e-09 -1.21403e-09 -1.0484e-09 -2.22167 -0.733487 0.20892 -2.03217e-16 0.0 -3.88251e-19 -3.58426 1.08554 -7.81157 0.00474527 9.70238 0.186923 -1.38188 -12.8882 -5.07221 2.03217e-16 0.0 3.88251e-19 6.2956 1.83483 2.05327 0.0139736 6.16202 -0.186675 2.37289 -7.97623 8.50365
-161.431 85.2133 1.45748 14.1809 84.7048 14.5873 -0.246742 9.78562 2.18687 2.17775 -3.82352 0.877103 3.43054 -5.92902 2.74771 -3.88797 13.7285 5.56165 -0.0 0.0 0.0 -0.0 0.0 0.0 -2.7037e-14 1.70707e-12 -3.32964e-14 76.9473 35.2233 4.95159 -13.8333 -6.82078 25.2194 -0.0646994 7.23867 1.02283 -1.14215e-09 -9.60528e-11 1.93083e-09 -1.96063e-09 -1.65942e-10 3.34724e-09 -1.14215e-09 -9.60484e-11 1.93082e-09 7.73091 5.47488 0.417314 -1.14215e-09 -9.60465e-11 1.93083e-09 2.90554 0.965183 0.102902 -1.14214e-09 -9.60492e-11 1.93082e-09 10.2786 0.731801 0.0259123 -1.14215e-09 -9.60508e-11 1.93082e-09 2.22167 -0.733487 -0.20892 -2.70343e-14 1.70708e-12 -3.34455e-14 -71.3542 43.81 -12.0045 11.6177 -5.18406 -20.8723 0.106881 9.28345 -1.31636 2.95038e-09 -1.42056e-09 -1.25846e-09 5.08959e-09 -2.45511e-09 -2.19996e-09 2.95036e-09 -1.42057e-09 -1.25845e-09 -7.73091 5.47488 -0.417314 2.95038e-09 -1.42056e-09 -1.25846e-09 -2.90554 0.965183 -0.102902 2.95036e-09 -1.42057e-09 -1.25845e-09 -10.2786 0.731801 -0.0259123 2.95039e-09 -1.42057e-09 -1.25847e-09 -2.22167 -0.733487 0.20892 -2.03217e-16 0.0 -3.88251e-19 -4.48962 2.87281 -9.47691 0.00422441 10.169 0.20461 -1.88042 -15.5902 -6.27432 2.03217e-16 0.0 3.88251e-19 7.43933 2.6518 2.50643 0.0251393 7.96475 -0.244666 3.2734 -10.5348 10.4693
